<svg width="32" height="32" viewBox="0 0 32 32" fill="none" xmlns="http://www.w3.org/2000/svg">
<g clip-path="url(#clip0_1676_6)">
<path d="M16 32C24.8366 32 32 24.8366 32 16C32 7.16344 24.8366 0 16 0C7.16344 0 0 7.16344 0 16C0 24.8366 7.16344 32 16 32Z" fill="url(#paint0_radial_1676_6)"/>
<path d="M16 32C24.8366 32 32 24.8366 32 16C32 7.16344 24.8366 0 16 0C7.16344 0 0 7.16344 0 16C0 24.8366 7.16344 32 16 32Z" fill="url(#paint1_radial_1676_6)"/>
<path d="M16 32C24.8366 32 32 24.8366 32 16C32 7.16344 24.8366 0 16 0C7.16344 0 0 7.16344 0 16C0 24.8366 7.16344 32 16 32Z" fill="url(#paint2_radial_1676_6)"/>
<path d="M16 32C24.8366 32 32 24.8366 32 16C32 7.16344 24.8366 0 16 0C7.16344 0 0 7.16344 0 16C0 24.8366 7.16344 32 16 32Z" fill="url(#paint3_radial_1676_6)"/>
<path d="M16.0008 7C13.5566 7 13.2498 7.01068 12.2898 7.05437C11.3317 7.09825 10.6777 7.24994 10.1054 7.47251C9.51346 7.70238 9.01133 8.00988 8.51108 8.51031C8.01045 9.01057 7.70294 9.51269 7.47232 10.1044C7.24919 10.6769 7.09731 11.3311 7.05419 12.2888C7.01125 13.2488 7 13.5558 7 16C7 18.4443 7.01088 18.7501 7.05437 19.7101C7.09844 20.6682 7.25013 21.3222 7.4725 21.8944C7.70257 22.4864 8.01007 22.9885 8.51051 23.4888C9.01059 23.9894 9.51271 24.2976 10.1043 24.5275C10.6769 24.7501 11.3311 24.9018 12.2891 24.9456C13.2491 24.9893 13.5556 25 15.9997 25C18.4442 25 18.75 24.9893 19.71 24.9456C20.6681 24.9018 21.3229 24.7501 21.8955 24.5275C22.4873 24.2976 22.9887 23.9894 23.4887 23.4888C23.9894 22.9885 24.2969 22.4864 24.5275 21.8946C24.7487 21.3222 24.9006 20.668 24.9456 19.7103C24.9887 18.7503 25 18.4442 25 16C25 13.5557 24.9887 13.249 24.9456 12.289C24.9006 11.3309 24.7487 10.6769 24.5275 10.1046C24.2969 9.51269 23.9894 9.01056 23.4887 8.51031C22.9881 8.00968 22.4875 7.70219 21.895 7.4725C21.3212 7.24994 20.6668 7.09825 19.7087 7.05437C18.7487 7.01068 18.4431 7 15.998 7H16.0008ZM15.1935 8.62188C15.4331 8.6215 15.7005 8.62188 16.0008 8.62188C18.4039 8.62188 18.6887 8.6305 19.6376 8.67363C20.5151 8.71375 20.9914 8.86037 21.3086 8.98356C21.7287 9.14668 22.0281 9.34169 22.3429 9.65669C22.6579 9.97169 22.8529 10.2717 23.0164 10.6917C23.1396 11.0086 23.2864 11.4848 23.3264 12.3623C23.3695 13.3111 23.3789 13.5961 23.3789 15.9979C23.3789 18.3998 23.3695 18.6848 23.3264 19.6336C23.2862 20.5111 23.1396 20.9873 23.0164 21.3042C22.8533 21.7242 22.6579 22.0233 22.3429 22.3381C22.0279 22.6531 21.7288 22.8481 21.3086 23.0112C20.9918 23.1349 20.5151 23.2812 19.6376 23.3213C18.6889 23.3644 18.4039 23.3738 16.0008 23.3738C13.5976 23.3738 13.3128 23.3644 12.3641 23.3213C11.4866 23.2808 11.0103 23.1342 10.6929 23.011C10.2728 22.8479 9.97284 22.6529 9.65784 22.3379C9.34284 22.0229 9.14784 21.7236 8.98433 21.3034C8.86114 20.9866 8.71433 20.5103 8.6744 19.6328C8.63127 18.6841 8.62264 18.3991 8.62264 15.9957C8.62264 13.5923 8.63127 13.3088 8.6744 12.3601C8.71452 11.4826 8.86114 11.0063 8.98433 10.6891C9.14746 10.2691 9.34284 9.96906 9.65784 9.65407C9.97284 9.33906 10.2728 9.14407 10.6929 8.98057C11.0101 8.85681 11.4866 8.71057 12.3641 8.67025C13.1943 8.63275 13.5161 8.6215 15.1935 8.61962L15.1935 8.62188ZM20.805 10.1162C20.2088 10.1162 19.725 10.5994 19.725 11.1959C19.725 11.7921 20.2088 12.2759 20.805 12.2759C21.4013 12.2759 21.885 11.7921 21.885 11.1959C21.885 10.5996 21.4013 10.1159 20.805 10.1159L20.805 10.1162ZM16.0008 11.3781C13.4484 11.3781 11.3789 13.4476 11.3789 16C11.3789 18.5524 13.4484 20.6209 16.0008 20.6209C18.5533 20.6209 20.622 18.5524 20.622 16C20.622 13.4476 18.5531 11.3781 16.0007 11.3781H16.0008ZM16.0008 13C17.6576 13 19.0009 14.3431 19.0009 16C19.0009 17.6568 17.6576 19 16.0008 19C14.3439 19 13.0008 17.6568 13.0008 16C13.0008 14.3431 14.3439 13 16.0008 13Z" fill="white"/>
</g>
<defs>
<radialGradient id="paint0_radial_1676_6" cx="0" cy="0" r="1" gradientUnits="userSpaceOnUse" gradientTransform="translate(30.9667 14.9988) rotate(164.25) scale(20.4462 14.7305)">
<stop stop-color="#FF005F"/>
<stop offset="1" stop-color="#FC01D8"/>
</radialGradient>
<radialGradient id="paint1_radial_1676_6" cx="0" cy="0" r="1" gradientUnits="userSpaceOnUse" gradientTransform="translate(8.49976 34.4647) rotate(-90) scale(25.543 27.1006)">
<stop stop-color="#FFCC00"/>
<stop offset="0.1242" stop-color="#FFCC00"/>
<stop offset="0.5672" stop-color="#FE4A05"/>
<stop offset="0.6942" stop-color="#FF0F3F"/>
<stop offset="1" stop-color="#FE0657" stop-opacity="0"/>
</radialGradient>
<radialGradient id="paint2_radial_1676_6" cx="0" cy="0" r="1" gradientUnits="userSpaceOnUse" gradientTransform="translate(16.8086 31.5487) rotate(-59.8703) scale(10.5623 13.7509)">
<stop stop-color="#FFCC00"/>
<stop offset="1" stop-color="#FFCC00" stop-opacity="0"/>
</radialGradient>
<radialGradient id="paint3_radial_1676_6" cx="0" cy="0" r="1" gradientUnits="userSpaceOnUse" gradientTransform="translate(4.34171 1.30303) rotate(164.274) scale(20.2194 6.88873)">
<stop stop-color="#780CFF"/>
<stop offset="1" stop-color="#820BFF" stop-opacity="0"/>
</radialGradient>
<clipPath id="clip0_1676_6">
<rect width="32" height="32" fill="white"/>
</clipPath>
</defs>
</svg>
