<svg xmlns="http://www.w3.org/2000/svg" xmlns:xlink="http://www.w3.org/1999/xlink" width="32" height="32" viewBox="0 0 32 32">
  <defs>
    <clipPath id="clip-path">
      <rect width="32" height="32" fill="none"/>
    </clipPath>
  </defs>
  <g id="icon_social_in" clip-path="url(#clip-path)">
    <circle id="Ellipse_352" data-name="Ellipse 352" cx="16" cy="16" r="16" fill="#0078bb"/>
    <g id="Group_1566" data-name="Group 1566" transform="translate(9.823 8)">
      <path id="Path_1545" data-name="Path 1545" d="M119,12.161h2.774v9.015H119ZM120.387,8A1.387,1.387,0,1,1,119,9.387,1.391,1.391,0,0,1,120.387,8" transform="translate(-119 -8)" fill="#fff"/>
      <path id="Path_1546" data-name="Path 1546" d="M126,14h2.774v1.387h0a2.342,2.342,0,0,1,2.275-1.394c2.76,0,3.273,1.824,3.273,4.2v4.827H131.6V18.733c0-1.019-.021-2.337-1.422-2.337-1.422,0-1.4,1.11-1.4,2.261v4.355H126Z" transform="translate(-121.145 -9.836)" fill="#fff"/>
    </g>
  </g>
</svg>