<svg width="32" height="32" viewBox="0 0 32 32" fill="none" xmlns="http://www.w3.org/2000/svg">
  <g clip-path="url(#clip0_22_115)">
    <path d="M16 32C24.8366 32 32 24.8366 32 16C32 7.16344 24.8366 0 16 0C7.16344 0 0 7.16344 0 16C0 24.8366 7.16344 32 16 32Z" fill="black"/>
    <path d="M6.04777 7L13.6274 17.1364L6 25.3778H7.71675L14.3946 18.1622L19.79 25.3778H25.6317L17.6255 14.6714L24.7251 7H23.0084L16.8586 13.6453L11.8895 7H6.04777ZM8.57232 8.26467H11.256L23.1069 24.1132H20.4232L8.57232 8.26467Z" fill="white"/>
  </g>
  <defs>
    <clipPath id="clip0_22_115">
      <rect width="32" height="32" fill="white"/>
    </clipPath>
  </defs>
</svg>
